<?xml version='1.0' encoding='utf-8'?>
<svg xmlns="http://www.w3.org/2000/svg" version="1.1" width="310" height="320" viewBox="0 0 310 320"><g transform="translate(-170 -335)"><path d="M0 0 C3 0.25 3 0.25 5 2.25 C5 9.84 5 17.43 5 25.25 C54.5 25.25 104 25.25 155 25.25 C155 17.66 155 10.07 155 2.25 C157 0.25 157 0.25 160 0 C163 0.25 163 0.25 165 2.25 C165.22705078 4.58837891 165.22705078 4.58837891 165.1953125 7.4765625 C165.18564453 9.0234375 165.18564453 9.0234375 165.17578125 10.6015625 C165.15064453 12.22191406 165.15064453 12.22191406 165.125 13.875 C165.11597656 14.96296875 165.10695313 16.0509375 165.09765625 17.171875 C165.07403409 19.86480152 165.04109556 22.55729255 165 25.25 C166.33792603 25.2185791 166.33792603 25.2185791 167.70288086 25.18652344 C171.05210968 25.11783914 174.40057668 25.06795673 177.75024414 25.03027344 C179.19242252 25.01031249 180.6345216 24.98313337 182.07641602 24.94824219 C193.37351368 24.68196744 201.8851349 25.75887976 210.5 33.67578125 C216.683548 40.16528605 218.29975403 46.29904655 218.27415466 55.0221405 C218.27939134 55.90548783 218.28462802 56.78883516 218.29002339 57.69895059 C218.3050252 60.65896534 218.30572859 63.61880726 218.30639648 66.57885742 C218.31401794 68.70127657 218.32244541 70.82369295 218.33161926 72.94610596 C218.35357479 78.71283165 218.36236481 84.47950431 218.36744571 90.24626708 C218.37108858 93.85034994 218.37732834 97.45441891 218.3844471 101.05849648 C218.408947 113.63576493 218.42199429 126.21299211 218.42553711 138.7902832 C218.42917093 150.50720663 218.4590541 162.22386788 218.50094169 173.9407112 C218.5356564 184.0045884 218.55108577 194.06837879 218.55178314 204.13231546 C218.55257566 210.14099009 218.56130302 216.14939779 218.58978081 222.15801048 C218.61598073 227.81258421 218.61815551 233.46667007 218.60212517 239.12127686 C218.60031213 241.19245277 218.60698817 243.26365686 218.62294388 245.33477211 C218.76696916 265.24993689 218.76696916 265.24993689 213 273.25 C212.319375 274.3225 211.63875 275.395 210.9375 276.5 C204.84929501 282.97905449 197.20100081 285.51020522 188.56706023 285.93795812 C183.51248479 286.05979889 178.46328604 286.04457292 173.40771484 286.01049805 C171.12662421 286.01699926 168.84553967 286.02606598 166.56446838 286.03749084 C160.39713467 286.06048512 154.23042323 286.0459044 148.06310987 286.02302146 C141.59623349 286.00404691 135.1293973 286.01527279 128.6625061 286.02192688 C117.11243208 286.02866348 105.56267043 286.00596086 94.01266034 285.97098748 C83.55619363 285.9400839 73.10004597 285.93773402 62.64355469 285.95678711 C49.17558153 285.98129956 35.70791134 285.98029515 22.23991776 285.95801735 C17.10695051 285.9500456 11.97413016 285.95200578 6.84116745 285.96204185 C0.79493188 285.97261472 -5.25075818 285.95840287 -11.29690742 285.92529869 C-13.51158097 285.91711137 -15.72630466 285.91735197 -17.94097328 285.92677689 C-40.80008984 286.01335301 -40.80008984 286.01335301 -50.875 277 C-56.72411608 270.48637014 -58.60276851 263.57646142 -58.50120544 254.98338318 C-58.50673984 254.09520702 -58.51227424 253.20703086 -58.51797634 252.29194027 C-58.53150316 249.33943623 -58.51665714 246.38778927 -58.50170898 243.43530273 C-58.50549503 241.30904788 -58.51099741 239.1827955 -58.51808167 237.05654907 C-58.53201535 231.29835866 -58.52088133 225.54046774 -58.50437045 219.78229403 C-58.49049568 213.74955954 -58.49698273 207.716842 -58.50050354 201.68409729 C-58.50320353 191.55538113 -58.48974744 181.42678363 -58.46655273 171.2980957 C-58.43993723 159.59473655 -58.43819902 147.89157565 -58.4499411 136.1881966 C-58.46072661 124.91946089 -58.45452616 113.65079676 -58.44038582 102.38206673 C-58.43463348 97.59078335 -58.43470278 92.79955249 -58.43945122 88.00826836 C-58.44422956 82.36520438 -58.43408357 76.72235704 -58.41249657 71.07933426 C-58.40694052 69.01055825 -58.40645253 66.94176137 -58.41144943 64.87298393 C-58.41742273 62.04496136 -58.40485784 59.2175966 -58.38768005 56.38963318 C-58.3936901 55.57473921 -58.39970014 54.75984524 -58.40589231 53.92025751 C-58.30775029 45.00979542 -55.27584109 38.733403 -49.19140625 32.234375 C-42.91805109 26.55368976 -36.31859447 25.11729409 -28.046875 25.15234375 C-27.38665344 25.1537587 -26.72643188 25.15517365 -26.04620361 25.15663147 C-23.94742206 25.16220755 -21.84874905 25.17475553 -19.75 25.1875 C-18.32291821 25.1925181 -16.89583475 25.19708046 -15.46875 25.20117188 C-11.97913168 25.21216912 -8.48957644 25.2294172 -5 25.25 C-5.01571045 24.22060303 -5.01571045 24.22060303 -5.03173828 23.17041016 C-5.07321874 20.07197711 -5.09930069 16.97360239 -5.125 13.875 C-5.14175781 12.79476563 -5.15851563 11.71453125 -5.17578125 10.6015625 C-5.18544922 9.0546875 -5.18544922 9.0546875 -5.1953125 7.4765625 C-5.21102295 6.04691162 -5.21102295 6.04691162 -5.22705078 4.58837891 C-4.86304802 0.83954192 -3.64004591 0.30333716 0 0 Z " fill="#FBFBFB" transform="translate(240,350.75)" />
<path d="M0 0 C3 0.25 3 0.25 5 2.25 C5 9.84 5 17.43 5 25.25 C54.5 25.25 104 25.25 155 25.25 C155 17.66 155 10.07 155 2.25 C157 0.25 157 0.25 160 0 C163 0.25 163 0.25 165 2.25 C165.22705078 4.58837891 165.22705078 4.58837891 165.1953125 7.4765625 C165.18564453 9.0234375 165.18564453 9.0234375 165.17578125 10.6015625 C165.15064453 12.22191406 165.15064453 12.22191406 165.125 13.875 C165.11597656 14.96296875 165.10695313 16.0509375 165.09765625 17.171875 C165.07403409 19.86480152 165.04109556 22.55729255 165 25.25 C166.33792603 25.2185791 166.33792603 25.2185791 167.70288086 25.18652344 C171.05210968 25.11783914 174.40057668 25.06795673 177.75024414 25.03027344 C179.19242252 25.01031249 180.6345216 24.98313337 182.07641602 24.94824219 C193.37351368 24.68196744 201.8851349 25.75887976 210.5 33.67578125 C216.683548 40.16528605 218.29975403 46.29904655 218.27415466 55.0221405 C218.27939134 55.90548783 218.28462802 56.78883516 218.29002339 57.69895059 C218.3050252 60.65896534 218.30572859 63.61880726 218.30639648 66.57885742 C218.31401794 68.70127657 218.32244541 70.82369295 218.33161926 72.94610596 C218.35357479 78.71283165 218.36236481 84.47950431 218.36744571 90.24626708 C218.37108858 93.85034994 218.37732834 97.45441891 218.3844471 101.05849648 C218.408947 113.63576493 218.42199429 126.21299211 218.42553711 138.7902832 C218.42917093 150.50720663 218.4590541 162.22386788 218.50094169 173.9407112 C218.5356564 184.0045884 218.55108577 194.06837879 218.55178314 204.13231546 C218.55257566 210.14099009 218.56130302 216.14939779 218.58978081 222.15801048 C218.61598073 227.81258421 218.61815551 233.46667007 218.60212517 239.12127686 C218.60031213 241.19245277 218.60698817 243.26365686 218.62294388 245.33477211 C218.76696916 265.24993689 218.76696916 265.24993689 213 273.25 C212.319375 274.3225 211.63875 275.395 210.9375 276.5 C204.84929501 282.97905449 197.20100081 285.51020522 188.56706023 285.93795812 C183.51248479 286.05979889 178.46328604 286.04457292 173.40771484 286.01049805 C171.12662421 286.01699926 168.84553967 286.02606598 166.56446838 286.03749084 C160.39713467 286.06048512 154.23042323 286.0459044 148.06310987 286.02302146 C141.59623349 286.00404691 135.1293973 286.01527279 128.6625061 286.02192688 C117.11243208 286.02866348 105.56267043 286.00596086 94.01266034 285.97098748 C83.55619363 285.9400839 73.10004597 285.93773402 62.64355469 285.95678711 C49.17558153 285.98129956 35.70791134 285.98029515 22.23991776 285.95801735 C17.10695051 285.9500456 11.97413016 285.95200578 6.84116745 285.96204185 C0.79493188 285.97261472 -5.25075818 285.95840287 -11.29690742 285.92529869 C-13.51158097 285.91711137 -15.72630466 285.91735197 -17.94097328 285.92677689 C-40.80008984 286.01335301 -40.80008984 286.01335301 -50.875 277 C-56.72411608 270.48637014 -58.60276851 263.57646142 -58.50120544 254.98338318 C-58.50673984 254.09520702 -58.51227424 253.20703086 -58.51797634 252.29194027 C-58.53150316 249.33943623 -58.51665714 246.38778927 -58.50170898 243.43530273 C-58.50549503 241.30904788 -58.51099741 239.1827955 -58.51808167 237.05654907 C-58.53201535 231.29835866 -58.52088133 225.54046774 -58.50437045 219.78229403 C-58.49049568 213.74955954 -58.49698273 207.716842 -58.50050354 201.68409729 C-58.50320353 191.55538113 -58.48974744 181.42678363 -58.46655273 171.2980957 C-58.43993723 159.59473655 -58.43819902 147.89157565 -58.4499411 136.1881966 C-58.46072661 124.91946089 -58.45452616 113.65079676 -58.44038582 102.38206673 C-58.43463348 97.59078335 -58.43470278 92.79955249 -58.43945122 88.00826836 C-58.44422956 82.36520438 -58.43408357 76.72235704 -58.41249657 71.07933426 C-58.40694052 69.01055825 -58.40645253 66.94176137 -58.41144943 64.87298393 C-58.41742273 62.04496136 -58.40485784 59.2175966 -58.38768005 56.38963318 C-58.3936901 55.57473921 -58.39970014 54.75984524 -58.40589231 53.92025751 C-58.30775029 45.00979542 -55.27584109 38.733403 -49.19140625 32.234375 C-42.91805109 26.55368976 -36.31859447 25.11729409 -28.046875 25.15234375 C-27.38665344 25.1537587 -26.72643188 25.15517365 -26.04620361 25.15663147 C-23.94742206 25.16220755 -21.84874905 25.17475553 -19.75 25.1875 C-18.32291821 25.1925181 -16.89583475 25.19708046 -15.46875 25.20117188 C-11.97913168 25.21216912 -8.48957644 25.2294172 -5 25.25 C-5.01571045 24.22060303 -5.01571045 24.22060303 -5.03173828 23.17041016 C-5.07321874 20.07197711 -5.09930069 16.97360239 -5.125 13.875 C-5.14175781 12.79476563 -5.15851563 11.71453125 -5.17578125 10.6015625 C-5.18544922 9.0546875 -5.18544922 9.0546875 -5.1953125 7.4765625 C-5.21102295 6.04691162 -5.21102295 6.04691162 -5.22705078 4.58837891 C-4.86304802 0.83954192 -3.64004591 0.30333716 0 0 Z M-49 97.25 C-49.0825 123.98 -49.165 150.71 -49.25 178.25 C-49.28641602 186.68691406 -49.32283203 195.12382813 -49.36035156 203.81640625 C-49.37373013 211.38586099 -49.37373013 211.38586099 -49.3817749 218.95532227 C-49.38549827 222.32424478 -49.40047491 225.69291461 -49.42230225 229.06176758 C-49.44980202 233.36329967 -49.45795308 237.66446597 -49.4522891 241.9660778 C-49.45347292 243.54203274 -49.46136775 245.11800086 -49.47686052 246.69388008 C-49.56251088 255.83289739 -49.56957777 263.16947788 -43.1484375 270.30859375 C-42.56320313 270.76363281 -41.97796875 271.21867188 -41.375 271.6875 C-40.78460938 272.16058594 -40.19421875 272.63367188 -39.5859375 273.12109375 C-35.65455534 275.91954065 -31.69380898 275.40129218 -27.04367065 275.40390015 C-26.10430574 275.4082824 -25.16494082 275.41266465 -24.1971103 275.4171797 C-21.02967964 275.43060109 -17.86227682 275.43675408 -14.69482422 275.44287109 C-12.43167494 275.45076951 -10.16852692 275.45903829 -7.90538025 275.46765137 C-0.45516162 275.49390433 6.99506271 275.5091835 14.4453125 275.5234375 C17.00763834 275.52879607 19.56996413 275.53417357 22.13228989 275.53956985 C32.79010399 275.56120447 43.4479152 275.58009286 54.10574532 275.59119225 C56.87225473 275.59412194 59.63876411 275.5970836 62.40527344 275.60009766 C63.09287596 275.60084371 63.78047849 275.60158976 64.48891746 275.60235842 C75.62205582 275.61500588 86.75503426 275.64821974 97.8880979 275.68989949 C109.31941711 275.7323447 120.75061511 275.75548289 132.18202007 275.76111281 C138.59980608 275.76476886 145.01732117 275.77681736 151.43503189 275.80921555 C157.47447738 275.83926605 163.51348759 275.84561843 169.55299187 275.83383179 C171.76852858 275.8336108 173.98408531 275.84193693 176.19955254 275.85948563 C179.22748192 275.88216216 182.25383105 275.87388844 185.2817688 275.85800171 C186.15591088 275.8718838 187.03005297 275.88576588 187.93068421 275.90006864 C194.10106906 275.82045407 198.22154396 274.17760014 203 270.25 C209.55559557 263.46553912 208.67504283 255.04548949 208.56762695 246.1953125 C208.56609367 244.54230813 208.56676548 242.8893005 208.56945324 241.23629761 C208.57057809 236.82548347 208.54168418 232.41535305 208.50640106 228.00469971 C208.47784141 223.85988302 208.47658094 219.71522925 208.47302246 215.5703125 C208.44682756 203.46345176 208.37702135 191.35671715 208.3125 179.25 C208.209375 152.19 208.10625 125.13 208 97.25 C123.19 97.25 38.38 97.25 -49 97.25 Z " fill="#1B1B1B" transform="translate(240,350.75)" />
<path d="M0 0 C0.99245476 0.00212242 0.99245476 0.00212242 2.00495911 0.00428772 C4.11402953 0.00987629 6.22299302 0.0224266 8.33203125 0.03515625 C9.76367034 0.04017273 11.1953111 0.04473538 12.62695312 0.04882812 C16.13288664 0.05899025 19.63858952 0.07856764 23.14453125 0.09765625 C23.63953125 11.48265625 23.63953125 11.48265625 24.14453125 23.09765625 C26.12453125 23.09765625 28.10453125 23.09765625 30.14453125 23.09765625 C35.61160441 17.63058309 32.77677611 7.82051414 33.14453125 0.09765625 C82.64453125 0.09765625 132.14453125 0.09765625 183.14453125 0.09765625 C183.47453125 7.02765625 183.80453125 13.95765625 184.14453125 21.09765625 C185.13453125 22.08765625 185.13453125 22.08765625 186.14453125 23.09765625 C188.12453125 23.09765625 190.10453125 23.09765625 192.14453125 23.09765625 C192.47453125 15.50765625 192.80453125 7.91765625 193.14453125 0.09765625 C197.12884791 0.00523653 201.1103944 -0.07421035 205.09521484 -0.12207031 C207.10800752 -0.1518042 209.12045259 -0.20266104 211.1328125 -0.25390625 C218.61002337 -0.3290541 223.99108181 -0.34960948 230.14453125 4.09765625 C236.14453125 12.09765625 236.14453125 12.09765625 236.14453125 52.09765625 C151.66453125 52.09765625 67.18453125 52.09765625 -19.85546875 52.09765625 C-19.85546875 10.21501566 -19.85546875 10.21501566 -14.2578125 4.453125 C-9.31454193 0.5116906 -6.23191564 -0.026295 0 0 Z " fill="#FDFDFD" transform="translate(211.85546875,385.90234375)" />
<path d="M0 0 C1.10472656 -0.00386719 2.20945312 -0.00773438 3.34765625 -0.01171875 C4.50136719 -0.00011719 5.65507812 0.01148438 6.84375 0.0234375 C8.57431641 0.00603516 8.57431641 0.00603516 10.33984375 -0.01171875 C11.44457031 -0.00785156 12.54929687 -0.00398437 13.6875 0 C14.70005859 0.00338379 15.71261719 0.00676758 16.75585938 0.01025391 C19.34375 0.3984375 19.34375 0.3984375 21.17236328 1.58349609 C22.78288022 4.07882393 22.73187249 5.87700461 22.7421875 8.8359375 C22.74798828 10.42535156 22.74798828 10.42535156 22.75390625 12.046875 C22.74230469 13.15289063 22.73070312 14.25890625 22.71875 15.3984375 C22.73035156 16.50445313 22.74195313 17.61046875 22.75390625 18.75 C22.75003906 19.80960938 22.74617188 20.86921875 22.7421875 21.9609375 C22.73880371 22.93160156 22.73541992 23.90226563 22.73193359 24.90234375 C22.34375 27.3984375 22.34375 27.3984375 21.17236328 29.21337891 C18.61542817 30.87043672 16.72144709 30.78673609 13.6875 30.796875 C12.58277344 30.80074219 11.47804688 30.80460938 10.33984375 30.80859375 C9.18613281 30.79699219 8.03242188 30.78539062 6.84375 30.7734375 C5.69003906 30.78503906 4.53632813 30.79664063 3.34765625 30.80859375 C2.24292969 30.80472656 1.13820313 30.80085937 0 30.796875 C-1.01255859 30.79349121 -2.02511719 30.79010742 -3.06835938 30.78662109 C-5.65625 30.3984375 -5.65625 30.3984375 -7.48486328 29.21337891 C-9.09538022 26.71805107 -9.04437249 24.91987039 -9.0546875 21.9609375 C-9.05855469 20.90132812 -9.06242187 19.84171875 -9.06640625 18.75 C-9.05480469 17.64398437 -9.04320312 16.53796875 -9.03125 15.3984375 C-9.04285156 14.29242187 -9.05445313 13.18640625 -9.06640625 12.046875 C-9.06253906 10.98726562 -9.05867188 9.92765625 -9.0546875 8.8359375 C-9.05130371 7.86527344 -9.04791992 6.89460937 -9.04443359 5.89453125 C-8.65625 3.3984375 -8.65625 3.3984375 -7.48486328 1.58349609 C-4.92792817 -0.07356172 -3.03394709 0.01013891 0 0 Z " fill="#222222" transform="translate(284.65625,571.6015625)" />
<path d="M0 0 C1.10472656 -0.00386719 2.20945312 -0.00773438 3.34765625 -0.01171875 C4.50136719 -0.00011719 5.65507812 0.01148438 6.84375 0.0234375 C8.57431641 0.00603516 8.57431641 0.00603516 10.33984375 -0.01171875 C11.44457031 -0.00785156 12.54929687 -0.00398437 13.6875 0 C14.70005859 0.00338379 15.71261719 0.00676758 16.75585938 0.01025391 C19.34375 0.3984375 19.34375 0.3984375 21.17236328 1.58349609 C22.78288022 4.07882393 22.73187249 5.87700461 22.7421875 8.8359375 C22.74798828 10.42535156 22.74798828 10.42535156 22.75390625 12.046875 C22.74230469 13.15289063 22.73070312 14.25890625 22.71875 15.3984375 C22.73035156 16.50445313 22.74195313 17.61046875 22.75390625 18.75 C22.75003906 19.80960938 22.74617188 20.86921875 22.7421875 21.9609375 C22.73880371 22.93160156 22.73541992 23.90226563 22.73193359 24.90234375 C22.34375 27.3984375 22.34375 27.3984375 21.17236328 29.21337891 C18.61542817 30.87043672 16.72144709 30.78673609 13.6875 30.796875 C12.58277344 30.80074219 11.47804688 30.80460938 10.33984375 30.80859375 C9.18613281 30.79699219 8.03242188 30.78539062 6.84375 30.7734375 C5.69003906 30.78503906 4.53632813 30.79664063 3.34765625 30.80859375 C2.24292969 30.80472656 1.13820313 30.80085937 0 30.796875 C-1.01255859 30.79349121 -2.02511719 30.79010742 -3.06835938 30.78662109 C-5.65625 30.3984375 -5.65625 30.3984375 -7.48486328 29.21337891 C-9.09538022 26.71805107 -9.04437249 24.91987039 -9.0546875 21.9609375 C-9.05855469 20.90132812 -9.06242187 19.84171875 -9.06640625 18.75 C-9.05480469 17.64398437 -9.04320312 16.53796875 -9.03125 15.3984375 C-9.04285156 14.29242187 -9.05445313 13.18640625 -9.06640625 12.046875 C-9.06253906 10.98726562 -9.05867188 9.92765625 -9.0546875 8.8359375 C-9.05130371 7.86527344 -9.04791992 6.89460937 -9.04443359 5.89453125 C-8.65625 3.3984375 -8.65625 3.3984375 -7.48486328 1.58349609 C-4.92792817 -0.07356172 -3.03394709 0.01013891 0 0 Z " fill="#232323" transform="translate(284.65625,523.6015625)" />
<path d="M0 0 C1.10472656 -0.00386719 2.20945312 -0.00773437 3.34765625 -0.01171875 C4.50136719 -0.00011719 5.65507812 0.01148438 6.84375 0.0234375 C8.57431641 0.00603516 8.57431641 0.00603516 10.33984375 -0.01171875 C11.44457031 -0.00785156 12.54929687 -0.00398438 13.6875 0 C14.70005859 0.00338379 15.71261719 0.00676758 16.75585938 0.01025391 C19.34375 0.3984375 19.34375 0.3984375 21.17236328 1.58349609 C22.78288022 4.07882393 22.73187249 5.87700461 22.7421875 8.8359375 C22.74798828 10.42535156 22.74798828 10.42535156 22.75390625 12.046875 C22.74230469 13.15289062 22.73070312 14.25890625 22.71875 15.3984375 C22.73035156 16.50445312 22.74195313 17.61046875 22.75390625 18.75 C22.75003906 19.80960937 22.74617188 20.86921875 22.7421875 21.9609375 C22.73880371 22.93160156 22.73541992 23.90226562 22.73193359 24.90234375 C22.34375 27.3984375 22.34375 27.3984375 21.17236328 29.21337891 C18.61542817 30.87043672 16.72144709 30.78673609 13.6875 30.796875 C12.58277344 30.80074219 11.47804688 30.80460937 10.33984375 30.80859375 C9.18613281 30.79699219 8.03242188 30.78539062 6.84375 30.7734375 C5.69003906 30.78503906 4.53632813 30.79664063 3.34765625 30.80859375 C2.24292969 30.80472656 1.13820313 30.80085938 0 30.796875 C-1.01255859 30.79349121 -2.02511719 30.79010742 -3.06835938 30.78662109 C-5.65625 30.3984375 -5.65625 30.3984375 -7.48486328 29.21337891 C-9.09538022 26.71805107 -9.04437249 24.91987039 -9.0546875 21.9609375 C-9.05855469 20.90132813 -9.06242187 19.84171875 -9.06640625 18.75 C-9.05480469 17.64398438 -9.04320312 16.53796875 -9.03125 15.3984375 C-9.04285156 14.29242188 -9.05445313 13.18640625 -9.06640625 12.046875 C-9.06253906 10.98726563 -9.05867188 9.92765625 -9.0546875 8.8359375 C-9.05130371 7.86527344 -9.04791992 6.89460938 -9.04443359 5.89453125 C-8.65625 3.3984375 -8.65625 3.3984375 -7.48486328 1.58349609 C-4.92792817 -0.07356172 -3.03394709 0.01013891 0 0 Z " fill="#202020" transform="translate(284.65625,475.6015625)" />
<path d="M0 0 C1.15757812 -0.00257813 2.31515625 -0.00515625 3.5078125 -0.0078125 C4.72210938 -0.00007812 5.93640625 0.00765625 7.1875 0.015625 C8.40179688 0.00789062 9.61609375 0.00015625 10.8671875 -0.0078125 C12.60355469 -0.00394531 12.60355469 -0.00394531 14.375 0 C15.44105469 0.00225586 16.50710938 0.00451172 17.60546875 0.00683594 C20.1875 0.265625 20.1875 0.265625 22.1875 2.265625 C22.44628906 4.84765625 22.44628906 4.84765625 22.453125 8.078125 C22.45699219 9.81449219 22.45699219 9.81449219 22.4609375 11.5859375 C22.45320313 12.80023437 22.44546875 14.01453125 22.4375 15.265625 C22.44523437 16.47992187 22.45296875 17.69421875 22.4609375 18.9453125 C22.45835937 20.10289062 22.45578125 21.26046875 22.453125 22.453125 C22.45086914 23.51917969 22.44861328 24.58523438 22.44628906 25.68359375 C22.1875 28.265625 22.1875 28.265625 20.1875 30.265625 C15.87192601 30.72468521 11.52465845 30.58963551 7.1875 30.578125 C5.36605469 30.60229492 5.36605469 30.60229492 3.5078125 30.62695312 C2.35023438 30.62759766 1.19265625 30.62824219 0 30.62890625 C-1.06605469 30.63188721 -2.13210938 30.63486816 -3.23046875 30.63793945 C-4.08253906 30.51507568 -4.93460937 30.39221191 -5.8125 30.265625 C-8.08781766 26.85264852 -8.06924679 25.58431595 -8.078125 21.57421875 C-8.08070313 20.46498047 -8.08328125 19.35574219 -8.0859375 18.21289062 C-8.07820313 17.05466797 -8.07046875 15.89644531 -8.0625 14.703125 C-8.07023437 13.54103516 -8.07796875 12.37894531 -8.0859375 11.18164062 C-8.08335937 10.07369141 -8.08078125 8.96574219 -8.078125 7.82421875 C-8.07586914 6.80642334 -8.07361328 5.78862793 -8.07128906 4.73999023 C-7.53243466 -0.41216957 -4.39305426 0.00929606 0 0 Z " fill="#1A1A1A" transform="translate(337.8125,523.734375)" />
<path d="M0 0 C1.15757812 -0.00257813 2.31515625 -0.00515625 3.5078125 -0.0078125 C4.72210938 -0.00007813 5.93640625 0.00765625 7.1875 0.015625 C8.40179688 0.00789063 9.61609375 0.00015625 10.8671875 -0.0078125 C12.60355469 -0.00394531 12.60355469 -0.00394531 14.375 0 C15.44105469 0.00225586 16.50710938 0.00451172 17.60546875 0.00683594 C20.1875 0.265625 20.1875 0.265625 22.1875 2.265625 C22.44628906 4.84765625 22.44628906 4.84765625 22.453125 8.078125 C22.45699219 9.81449219 22.45699219 9.81449219 22.4609375 11.5859375 C22.45320313 12.80023438 22.44546875 14.01453125 22.4375 15.265625 C22.44523437 16.47992188 22.45296875 17.69421875 22.4609375 18.9453125 C22.45835937 20.10289062 22.45578125 21.26046875 22.453125 22.453125 C22.45086914 23.51917969 22.44861328 24.58523438 22.44628906 25.68359375 C22.1875 28.265625 22.1875 28.265625 20.1875 30.265625 C15.87192601 30.72468521 11.52465845 30.58963551 7.1875 30.578125 C5.36605469 30.60229492 5.36605469 30.60229492 3.5078125 30.62695312 C2.35023438 30.62759766 1.19265625 30.62824219 0 30.62890625 C-1.06605469 30.63188721 -2.13210938 30.63486816 -3.23046875 30.63793945 C-4.08253906 30.51507568 -4.93460937 30.39221191 -5.8125 30.265625 C-8.08781766 26.85264852 -8.06924679 25.58431595 -8.078125 21.57421875 C-8.08070313 20.46498047 -8.08328125 19.35574219 -8.0859375 18.21289062 C-8.07820313 17.05466797 -8.07046875 15.89644531 -8.0625 14.703125 C-8.07023437 13.54103516 -8.07796875 12.37894531 -8.0859375 11.18164062 C-8.08335937 10.07369141 -8.08078125 8.96574219 -8.078125 7.82421875 C-8.07586914 6.80642334 -8.07361328 5.78862793 -8.07128906 4.73999023 C-7.53243466 -0.41216957 -4.39305426 0.00929606 0 0 Z " fill="#191919" transform="translate(337.8125,475.734375)" />
<path d="M0 0 C1.66192383 -0.00386719 1.66192383 -0.00386719 3.35742188 -0.0078125 C4.51951172 -0.00007812 5.68160156 0.00765625 6.87890625 0.015625 C8.03712891 0.00789062 9.19535156 0.00015625 10.38867188 -0.0078125 C11.49791016 -0.00523437 12.60714844 -0.00265625 13.75 0 C15.27838501 0.00338379 15.27838501 0.00338379 16.83764648 0.00683594 C19.44140625 0.265625 19.44140625 0.265625 22.44140625 2.265625 C22.82958984 4.73999023 22.82958984 4.73999023 22.83984375 7.82421875 C22.84564453 9.48614258 22.84564453 9.48614258 22.8515625 11.18164062 C22.83996094 12.34373047 22.82835937 13.50582031 22.81640625 14.703125 C22.82800781 15.86134766 22.83960938 17.01957031 22.8515625 18.21289062 C22.84769531 19.32212891 22.84382813 20.43136719 22.83984375 21.57421875 C22.83645996 22.59314209 22.83307617 23.61206543 22.82958984 24.66186523 C22.44140625 27.265625 22.44140625 27.265625 21.25634766 29.09863281 C18.75635406 30.70610784 16.96460578 30.6379987 14.00390625 30.62890625 C12.41449219 30.62793945 12.41449219 30.62793945 10.79296875 30.62695312 C9.68695313 30.61083984 8.5809375 30.59472656 7.44140625 30.578125 C6.33539063 30.58134766 5.229375 30.58457031 4.08984375 30.58789062 C-4.15797451 30.53270449 -4.15797451 30.53270449 -7.55859375 28.265625 C-7.9309082 25.68359375 -7.9309082 25.68359375 -7.921875 22.453125 C-7.92123047 21.29554688 -7.92058594 20.13796875 -7.91992188 18.9453125 C-7.90380859 17.73101563 -7.88769531 16.51671875 -7.87109375 15.265625 C-7.87431641 14.05132813 -7.87753906 12.83703125 -7.88085938 11.5859375 C-7.81000475 0.01731023 -7.81000475 0.01731023 0 0 Z " fill="#1B1B1B" transform="translate(230.55859375,523.734375)" />
<path d="M0 0 C1.15757812 -0.00257813 2.31515625 -0.00515625 3.5078125 -0.0078125 C4.72210938 -0.00007813 5.93640625 0.00765625 7.1875 0.015625 C8.40179688 0.00789063 9.61609375 0.00015625 10.8671875 -0.0078125 C12.60355469 -0.00394531 12.60355469 -0.00394531 14.375 0 C15.44105469 0.00225586 16.50710938 0.00451172 17.60546875 0.00683594 C20.1875 0.265625 20.1875 0.265625 22.1875 2.265625 C22.64656021 6.58119899 22.51151051 10.92846655 22.5 15.265625 C22.51611328 16.47992188 22.53222656 17.69421875 22.54882812 18.9453125 C22.54947266 20.10289062 22.55011719 21.26046875 22.55078125 22.453125 C22.55376221 23.51917969 22.55674316 24.58523438 22.55981445 25.68359375 C22.43695068 26.53566406 22.31408691 27.38773437 22.1875 28.265625 C17.51504625 31.38059416 12.68164246 30.59413357 7.1875 30.578125 C5.52847656 30.60229492 5.52847656 30.60229492 3.8359375 30.62695312 C2.77632813 30.62759766 1.71671875 30.62824219 0.625 30.62890625 C-0.83099609 30.63337769 -0.83099609 30.63337769 -2.31640625 30.63793945 C-4.8125 30.265625 -4.8125 30.265625 -6.62963867 29.09863281 C-8.28971645 26.52611188 -8.18469783 24.62200131 -8.17578125 21.57421875 C-8.17481445 19.91036133 -8.17481445 19.91036133 -8.17382812 18.21289062 C-8.15771484 17.05466797 -8.14160156 15.89644531 -8.125 14.703125 C-8.12822266 13.54103516 -8.13144531 12.37894531 -8.13476562 11.18164062 C-8.06332272 0.01706265 -8.06332272 0.01706265 0 0 Z " fill="#191919" transform="translate(391.8125,475.734375)" />
<path d="M0 0 C1.15757812 -0.00257813 2.31515625 -0.00515625 3.5078125 -0.0078125 C4.72210938 -0.00007812 5.93640625 0.00765625 7.1875 0.015625 C8.40179688 0.00789062 9.61609375 0.00015625 10.8671875 -0.0078125 C12.60355469 -0.00394531 12.60355469 -0.00394531 14.375 0 C15.44105469 0.00225586 16.50710938 0.00451172 17.60546875 0.00683594 C20.1875 0.265625 20.1875 0.265625 22.1875 2.265625 C22.64565988 6.39313648 22.51150858 10.55313268 22.5 14.703125 C22.51611328 15.86134766 22.53222656 17.01957031 22.54882812 18.21289062 C22.54947266 19.32212891 22.55011719 20.43136719 22.55078125 21.57421875 C22.55376221 22.59314209 22.55674316 23.61206543 22.55981445 24.66186523 C22.1875 27.265625 22.1875 27.265625 21.00463867 29.09643555 C18.50770122 30.70302341 16.70836222 30.65374948 13.75 30.6640625 C12.69039063 30.66792969 11.63078125 30.67179688 10.5390625 30.67578125 C9.43304688 30.66417969 8.32703125 30.65257812 7.1875 30.640625 C6.08148438 30.65222656 4.97546875 30.66382813 3.8359375 30.67578125 C2.77632813 30.67191406 1.71671875 30.66804687 0.625 30.6640625 C-0.34566406 30.66067871 -1.31632812 30.65729492 -2.31640625 30.65380859 C-4.8125 30.265625 -4.8125 30.265625 -6.62963867 29.09643555 C-8.29071111 26.52545882 -8.18469521 24.62110772 -8.17578125 21.57421875 C-8.17481445 19.91036133 -8.17481445 19.91036133 -8.17382812 18.21289062 C-8.15771484 17.05466797 -8.14160156 15.89644531 -8.125 14.703125 C-8.12822266 13.54103516 -8.13144531 12.37894531 -8.13476562 11.18164062 C-8.06332272 0.01706265 -8.06332272 0.01706265 0 0 Z " fill="#1C1C1C" transform="translate(337.8125,571.734375)" />
<path d="M0 0 C1.66385742 -0.00386719 1.66385742 -0.00386719 3.36132812 -0.0078125 C4.51955078 -0.00007812 5.67777344 0.00765625 6.87109375 0.015625 C8.03318359 0.00789062 9.19527344 0.00015625 10.39257812 -0.0078125 C11.50052734 -0.00523437 12.60847656 -0.00265625 13.75 0 C14.76779541 0.00225586 15.78559082 0.00451172 16.83422852 0.00683594 C19.30859375 0.265625 19.30859375 0.265625 21.30859375 2.265625 C21.76765396 6.58119899 21.63260426 10.92846655 21.62109375 15.265625 C21.63720703 16.47992187 21.65332031 17.69421875 21.66992188 18.9453125 C21.67056641 20.10289062 21.67121094 21.26046875 21.671875 22.453125 C21.67485596 23.51917969 21.67783691 24.58523438 21.6809082 25.68359375 C21.55804443 26.53566406 21.43518066 27.38773438 21.30859375 28.265625 C16.63614 31.38059416 11.80273621 30.59413357 6.30859375 30.578125 C4.64957031 30.60229492 4.64957031 30.60229492 2.95703125 30.62695312 C1.89742188 30.62759766 0.8378125 30.62824219 -0.25390625 30.62890625 C-1.70990234 30.63337769 -1.70990234 30.63337769 -3.1953125 30.63793945 C-5.69140625 30.265625 -5.69140625 30.265625 -7.50634766 29.09863281 C-9.16674756 26.53038343 -9.07973146 24.61922239 -9.08984375 21.57421875 C-9.09371094 20.46498047 -9.09757812 19.35574219 -9.1015625 18.21289062 C-9.08996094 17.05466797 -9.07835937 15.89644531 -9.06640625 14.703125 C-9.07800781 13.54103516 -9.08960938 12.37894531 -9.1015625 11.18164062 C-9.09769531 10.07369141 -9.09382813 8.96574219 -9.08984375 7.82421875 C-9.08645996 6.80642334 -9.08307617 5.78862793 -9.07958984 4.73999023 C-8.95148926 3.92344971 -8.82338867 3.10690918 -8.69140625 2.265625 C-5.27842977 -0.00969266 -4.0100972 0.00887821 0 0 Z " fill="#1A1A1A" transform="translate(392.69140625,523.734375)" />
<path d="M0 0 C1.66192383 -0.00386719 1.66192383 -0.00386719 3.35742188 -0.0078125 C4.51951172 -0.00007812 5.68160156 0.00765625 6.87890625 0.015625 C8.03712891 0.00789062 9.19535156 0.00015625 10.38867188 -0.0078125 C11.49791016 -0.00523437 12.60714844 -0.00265625 13.75 0 C15.27838501 0.00338379 15.27838501 0.00338379 16.83764648 0.00683594 C19.44140625 0.265625 19.44140625 0.265625 22.44140625 2.265625 C22.82958984 4.73999023 22.82958984 4.73999023 22.83984375 7.82421875 C22.84564453 9.48614258 22.84564453 9.48614258 22.8515625 11.18164062 C22.83996094 12.34373047 22.82835937 13.50582031 22.81640625 14.703125 C22.82800781 15.86134766 22.83960938 17.01957031 22.8515625 18.21289062 C22.84769531 19.32212891 22.84382813 20.43136719 22.83984375 21.57421875 C22.83645996 22.59314209 22.83307617 23.61206543 22.82958984 24.66186523 C22.44140625 27.265625 22.44140625 27.265625 21.25634766 29.09643555 C18.76090512 30.7040054 16.96142897 30.65375241 14.00390625 30.6640625 C12.94429687 30.66792969 11.8846875 30.67179688 10.79296875 30.67578125 C9.68695313 30.66417969 8.5809375 30.65257812 7.44140625 30.640625 C6.33539063 30.65222656 5.229375 30.66382813 4.08984375 30.67578125 C3.03023437 30.67191406 1.970625 30.66804687 0.87890625 30.6640625 C-0.09175781 30.66067871 -1.06242188 30.65729492 -2.0625 30.65380859 C-4.55859375 30.265625 -4.55859375 30.265625 -6.37573242 29.09643555 C-8.03680486 26.52545882 -7.93078896 24.62110772 -7.921875 21.57421875 C-7.9209082 19.91036133 -7.9209082 19.91036133 -7.91992188 18.21289062 C-7.90380859 17.05466797 -7.88769531 15.89644531 -7.87109375 14.703125 C-7.87431641 13.54103516 -7.87753906 12.37894531 -7.88085938 11.18164062 C-7.80941804 0.01730893 -7.80941804 0.01730893 0 0 Z " fill="#1D1D1D" transform="translate(230.55859375,571.734375)" />
<path d="M0 0 C4.62 0 9.24 0 14 0 C14 4.62 14 9.24 14 14 C9.38 14 4.76 14 0 14 C0 9.38 0 4.76 0 0 Z " fill="#E0E0E1" transform="translate(392,532)" />
<path d="M0 0 C4.62 0 9.24 0 14 0 C14 4.62 14 9.24 14 14 C9.38 14 4.76 14 0 14 C0 9.38 0 4.76 0 0 Z " fill="#E1E1E1" transform="translate(338,532)" />
<path d="M0 0 C4.62 0 9.24 0 14 0 C14 4.62 14 9.24 14 14 C9.38 14 4.76 14 0 14 C0 9.38 0 4.76 0 0 Z " fill="#E0E0E1" transform="translate(231,532)" />
<path d="M0 0 C4.62 0 9.24 0 14 0 C14 4.62 14 9.24 14 14 C9.38 14 4.76 14 0 14 C0 9.38 0 4.76 0 0 Z " fill="#E1E2E2" transform="translate(392,484)" />
<path d="M0 0 C4.62 0 9.24 0 14 0 C14 4.62 14 9.24 14 14 C9.38 14 4.76 14 0 14 C0 9.38 0 4.76 0 0 Z " fill="#E1E1E1" transform="translate(338,484)" />
<path d="M0 0 C4.62 0 9.24 0 14 0 C14 4.29 14 8.58 14 13 C9.38 13 4.76 13 0 13 C0 8.71 0 4.42 0 0 Z " fill="#E9EAEA" transform="translate(338,580)" />
<path d="M0 0 C4.62 0 9.24 0 14 0 C14 4.29 14 8.58 14 13 C9.38 13 4.76 13 0 13 C0 8.71 0 4.42 0 0 Z " fill="#E8E8E9" transform="translate(231,580)" />
<path d="M0 0 C4.29 0 8.58 0 13 0 C13 4.29 13 8.58 13 13 C8.71 13 4.42 13 0 13 C0 8.71 0 4.42 0 0 Z " fill="#F4F5F5" transform="translate(285,580)" />
<path d="M0 0 C4.29 0 8.58 0 13 0 C13 4.29 13 8.58 13 13 C8.71 13 4.42 13 0 13 C0 8.71 0 4.42 0 0 Z " fill="#F6F6F6" transform="translate(285,484)" />
<path d="M0 0 C4.29 0 8.58 0 13 0 C13 3.96 13 7.92 13 12 C8.71 12 4.42 12 0 12 C0 8.04 0 4.08 0 0 Z " fill="#F9F9F9" transform="translate(285,533)" />
<path d="M0 0 C2.67927341 4.01891012 2.15601248 6.24161923 2 11 C0.68 10.67 -0.64 10.34 -2 10 C-1.34 6.7 -0.68 3.4 0 0 Z " fill="#F4F4F4" transform="translate(242,582)" />
<path d="M0 0 C6.27 0 12.54 0 19 0 C19 0.33 19 0.66 19 1 C16.22922802 1.16774403 13.45839073 1.33423936 10.6875 1.5 C9.50897461 1.57154297 9.50897461 1.57154297 8.30664062 1.64453125 C7.1706543 1.71220703 7.1706543 1.71220703 6.01171875 1.78125 C5.31522217 1.82314453 4.61872559 1.86503906 3.90112305 1.90820312 C2.26903034 1.98700971 0.63399421 2 -1 2 C-0.67 1.34 -0.34 0.68 0 0 Z " fill="#121213" transform="translate(278,525)" />
</g></svg>